<svg xmlns="http://www.w3.org/2000/svg" width="200" height="300" fill="none" viewBox="0 0 200 300">
  <path fill="#F14E1C" d="M0 50C0 22.386 22.386 0 50 0h50v100H50C22.386 100 0 77.614 0 50Z"/>
  <path fill="#FF7362" d="M200 50c0 27.614-22.386 50-50 50h-50V0h50c27.614 0 50 22.386 50 50Z"/>
  <path fill="#19BCFE" d="M200 150c0 27.614-22.386 50-50 50s-50-22.386-50-50 22.386-50 50-50 50 22.386 50 50Z"/>
  <path fill="#A25AFF" d="M0 150c0-27.614 22.386-50 50-50h50v100H50c-27.614 0-50-22.386-50-50Z"/>
  <path fill="#0ACF84" d="M0 250c0-27.614 22.386-50 50-50h50v50c0 27.614-22.386 50-50 50S0 277.614 0 250Z"/>
</svg>
